HIERARCHY
ROOT Hips
{
  OFFSET -33.9132 29.2015 117.021
  CHANNELS 6 Xposition Yposition Zposition Zrotation Xrotation Yrotation
  JOINT LeftUpLeg
  {
    OFFSET 8.64259 1.95398 -2.38835
    CHANNELS 3 Zrotation Xrotation Yrotation
    JOINT LeftLeg
    {
      OFFSET 43.7702 0 0
      CHANNELS 3 Zrotation Xrotation Yrotation
      JOINT LeftFoot
      {
        OFFSET 40.6238 0 0
        CHANNELS 3 Zrotation Xrotation Yrotation
        JOINT LeftToeBase
        {
          OFFSET 12.7242 0 0
          CHANNELS 3 Zrotation Xrotation Yrotation
          End Site
          {
            OFFSET 0 0 0
          }
        }
      }
    }
  }
  JOINT RightUpLeg
  {
    OFFSET -8.2249 1.95398 -2.59336
    CHANNELS 3 Zrotation Xrotation Yrotation
    JOINT RightLeg
    {
      OFFSET 43.5653 0 0
      CHANNELS 3 Zrotation Xrotation Yrotation
      JOINT RightFoot
      {
        OFFSET 40.6238 0 0
        CHANNELS 3 Zrotation Xrotation Yrotation
        JOINT RightToeBase
        {
          OFFSET 12.7242 0 0
          CHANNELS 3 Zrotation Xrotation Yrotation
          End Site
          {
            OFFSET 0 0 0
          }
        }
      }
    }
  }
  JOINT Spine
  {
    OFFSET 0.165834 0.87714 6.61349
    CHANNELS 3 Zrotation Xrotation Yrotation
    JOINT Spine1
    {
      OFFSET 7.38963 1.71661e-005 0
      CHANNELS 3 Zrotation Xrotation Yrotation
      JOINT Spine2
      {
        OFFSET 11.9445 1.14441e-005 0
        CHANNELS 3 Zrotation Xrotation Yrotation
        JOINT Spine3
        {
          OFFSET 14.7254 4.19617e-005 0
          CHANNELS 3 Zrotation Xrotation Yrotation
          JOINT Spine4
          {
            OFFSET 10.9679 0 0
            CHANNELS 3 Zrotation Xrotation Yrotation
            JOINT RightShoulder
            {
              OFFSET 2.46616 -1.6653 3.69651
              CHANNELS 3 Zrotation Xrotation Yrotation
              JOINT RightArm
              {
                OFFSET 13.0012 0 0
                CHANNELS 3 Zrotation Xrotation Yrotation
                JOINT RightForeArm
                {
                  OFFSET 28.7848 1.62311e-005 0
                  CHANNELS 3 Zrotation Xrotation Yrotation
                  JOINT RightHand
                  {
                    OFFSET 26.5688 1.62095e-005 0
                    CHANNELS 3 Zrotation Xrotation Yrotation
                    End Site
                    {
                      OFFSET 0 0 0
                    }
                  }
                }
              }
            }
            JOINT LeftShoulder
            {
              OFFSET 2.38034 -1.29275 -3.7523
              CHANNELS 3 Zrotation Xrotation Yrotation
              JOINT LeftArm
              {
                OFFSET 16.3182 6.07031e-005 0
                CHANNELS 3 Zrotation Xrotation Yrotation
                JOINT LeftForeArm
                {
                  OFFSET 27.0901 0 0
                  CHANNELS 3 Zrotation Xrotation Yrotation
                  JOINT LeftHand
                  {
                    OFFSET 24.5451 1.51738e-005 0
                    CHANNELS 3 Zrotation Xrotation Yrotation
                    End Site
                    {
                      OFFSET 0 0 0
                    }
                  }
                }
              }
            }
            JOINT Neck
            {
              OFFSET 5.0226 -0.0266342 0
              CHANNELS 3 Zrotation Xrotation Yrotation
              JOINT Head
              {
                OFFSET 6.69364 2.86102e-005 0
                CHANNELS 3 Zrotation Xrotation Yrotation
                End Site
                {
                  OFFSET 0 0 0
                }
              }
            }
          }
        }
      }
    }
  }
}
MOTION
Frames:	16
Frame Time:	0.0416667
53.137 101.993 -340.322 176.476 -84.6174 173.971 177.996 -9.24358 81.2894 -3.92061 4.51988 6.57899 68.8602 5.86615 0.194955 16.516 -9.71776 6.6092 164.104 -4.96693 78.8227 -8.10386 -16.6826 4.2631 67.4564 -4.78056 0.690462 27.7412 0.059132 1.62723 0.170162 7.52162 -90.1071 11.831 0.288082 -0.244142 0.160014 0.277056 -0.256603 -22.3753 0.348143 -0.146284 -2.36267 0.348137 -0.146284 91.8268 -28.2585 -103.71 51.7828 3.62899 -6.20654 -6.0573 -51.4359 -5.95203 -18.9521 1.86742 -16.7934 -88.2809 -48.8874 81.0932 -28.9101 -7.31722 -13.9176 -8.03853 71.3126 -0.0818962 -8.23798 3.23197 -28.2289 5.69269 -3.78907 -4.83111 -4.86923 -2.95402 7.72135 
53.1403 101.984 -340.363 -177.913 -84.9384 179.871 178.208 -8.80102 81.598 -4.17563 3.96849 6.4485 69.1216 5.96848 0.000361525 18.5607 -9.95074 9.06433 164.448 -4.70986 79.2526 -7.95732 -16.9799 4.16613 67.2837 -4.79065 0.346475 28.2687 -0.728889 3.84913 0.23288 7.50424 -90.114 11.8661 0.409492 -0.270956 0.195195 0.397178 -0.288728 -22.3404 0.471995 -0.135352 -2.32777 0.47199 -0.135365 92.3917 -28.3866 -102.507 52.0673 3.27949 -6.84958 -6.1074 -51.9556 -5.98854 -19.1514 1.87643 -16.7215 -88.2824 -48.8808 81.0889 -29.067 -7.64446 -13.9427 -8.0889 69.2419 -0.0740355 -11.1253 4.05986 -28.7338 5.82684 -3.63808 -5.13269 -5.49234 -2.79245 8.03997 
53.1963 101.951 -340.622 -172.109 -85.4963 -173.516 178.941 -7.45046 82.6533 -5.609 4.04007 5.98821 69.8078 6.21796 0.086553 16.9934 -10.4745 8.35092 165.044 -4.69465 80.208 -6.65307 -16.2135 4.13557 66.1374 -4.24649 1.20265 28.9675 -0.591991 2.08009 0.229764 7.47419 -90.1978 11.9259 0.363687 -0.433869 0.254892 0.344244 -0.449467 -22.2803 0.477266 -0.304507 -2.26768 0.477268 -0.304515 91.6845 -28.3305 -103.968 51.5407 3.46545 -6.99994 -6.06208 -51.4844 -5.9552 -19.1685 1.87588 -16.7101 -88.2661 -49.7085 81.2707 -28.1351 -7.8556 -13.8504 -8.55921 64.008 -0.0598748 -7.06819 2.48327 -25.3191 6.30967 -3.59303 -4.65468 -6.03416 -2.85343 7.96927 
53.3912 101.907 -340.975 -164.671 -86.0853 -165.147 -179.845 -5.22525 84.0543 -8.50065 4.43395 4.99856 71.4151 7.02127 0.583965 16.088 -10.4828 7.4452 166.095 -4.22934 81.49 -6.36414 -15.0183 3.78532 65.5745 -4.07078 1.76746 29.856 -1.1283 2.72528 0.315457 7.44993 -90.3127 11.9754 0.479775 -0.675598 0.304351 0.449591 -0.696067 -22.2307 0.660641 -0.50017 -2.21803 0.660647 -0.500176 90.3686 -28.0582 -106.775 50.5435 4.14781 -6.3057 -5.79835 -48.5613 -5.76909 -19.3132 2.0594 -17.7202 -88.6286 -50.0697 80.7943 -27.852 -8.33378 -13.9709 -9.02805 56.8556 -0.0479924 -5.83475 1.90106 -25.0328 5.58082 -3.18417 -3.90906 -4.67031 -2.51445 7.14226 
53.8825 101.81 -341.219 -165.513 -86.7522 -165.425 -178.788 -2.97136 85.0524 -11.6543 4.96543 3.85686 73.2649 8.05331 0.152514 16.2891 -10.6041 7.84308 167.371 -3.6023 82.6084 -6.87847 -13.6153 2.91593 65.5626 -4.36368 1.59212 30.5816 -1.17466 1.54719 0.311776 7.43642 -90.3744 12.002 0.44326 -0.795089 0.330934 0.407831 -0.813829 -22.2035 0.661725 -0.625118 -2.19086 0.661713 -0.625128 90.1906 -27.7673 -107.253 50.2779 4.1237 -6.74228 -5.73796 -47.8422 -5.72805 -18.4916 1.78256 -16.5637 -88.2539 -50.3144 81.4009 -27.1016 -8.60532 -13.8852 -9.83125 47.3424 -0.0387238 -13.3604 4.14141 -32.0971 4.02974 -2.14393 -2.71822 -2.56602 -1.62687 4.93029 
54.5877 101.552 -341.208 -164.133 -86.8844 -163.101 -176.823 -0.855488 86.7287 -15.8304 6.71539 1.94183 75.582 9.65797 0.341179 15.2835 -11.3023 7.97558 169.118 -3.38532 84.217 -8.0793 -12.0533 1.54043 66.1063 -5.21701 1.39183 30.8303 -1.22349 1.28255 0.412462 7.49893 -90.5538 11.8776 0.559501 -1.16435 0.206229 0.507723 -1.18785 -22.3269 0.88355 -0.942399 -2.31426 0.883559 -0.942393 89.8728 -27.5156 -108.007 48.9069 4.8049 -6.5168 -5.66692 -46.9735 -5.68068 -18.4864 1.93068 -17.5058 -88.3915 -50.8878 81.3021 -26.5784 -8.97755 -14.0462 -10.4705 37.9505 -0.0332764 -5.22647 1.28024 -24.7679 5.67865 -3.31481 -2.67809 -5.01163 -2.87578 6.13998 
55.3722 100.811 -340.931 -157.435 -87.2584 -155.893 -175.265 1.84157 87.5153 -21.0501 7.67514 0.278716 78.8713 11.4011 0.235452 14.694 -11.3873 7.53455 171.938 0.696883 85.6026 -15.6149 -9.10823 -0.495777 67.6579 -7.23642 0.564744 34.7534 -2.71449 0.11819 0.429888 7.54307 -90.6468 11.7892 0.551039 -1.34776 0.117647 0.491197 -1.3707 -22.4143 0.93059 -1.11988 -2.40163 0.930598 -1.11988 89.5085 -28.1473 -108.485 47.3289 5.5381 -6.38752 -5.37048 -43.021 -5.49018 -19.2057 2.07821 -17.9071 -88.7353 -50.7961 80.7739 -26.1714 -8.9039 -13.9537 -11.2228 29.6603 -0.0301964 3.26173 -0.498881 -19.4251 5.11742 -2.58767 -2.50114 -3.28235 -2.09852 4.39719 
55.8986 100.241 -340.04 -123.929 -86.4293 -121.794 -173.886 2.93603 88.7845 -23.6421 6.74357 -1.10604 81.3685 12.4104 -0.653327 15.0871 -11.4859 8.07524 176.432 9.27512 87.9839 -32.2203 2.43598 -2.83407 73.2688 -8.64643 7.50904 26.9164 -0.68087 5.54241 0.43397 7.5582 -90.5936 11.7595 0.584307 -1.24495 0.0880251 0.528956 -1.26946 -22.4448 0.931444 -1.01182 -2.43216 0.931436 -1.01182 89.3409 -30.5821 -107.839 45.9545 6.06894 -6.63015 -5.0884 -38.7678 -5.33056 -19.8308 2.29217 -18.7424 -88.676 -48.4713 80.4095 -26.3606 -9.27464 -12.9665 -11.4629 25.2716 -0.029017 3.31386 -0.416571 -17.6655 4.23792 -1.61277 -4.69089 -1.13044 -0.711983 3.70849 
56.3149 100.417 -338.43 -112.581 -84.4426 -110.559 -174.199 0.197137 87.7716 -20.5685 4.22738 -0.944692 80.6092 12.429 -0.620111 15.335 -10.9409 7.44804 178.039 17.407 90.7412 -41.2543 -6.94666 -3.06765 69.2188 -6.52936 0.680193 29.7715 -1.10077 2.75878 0.21968 7.68176 -90.5728 11.5098 0.169266 -1.15855 -0.161651 0.118104 -1.16488 -22.6933 0.509598 -1.05414 -2.68068 0.509607 -1.05414 90.7933 -29.9565 -105.199 47.3519 5.29784 -7.17418 -5.10256 -38.9926 -5.3381 -19.0945 2.29363 -19.2906 -88.4762 -48.6448 80.7493 -24.8636 -9.83481 -13.6245 -11.135 29.7932 -0.0302364 5.08128 -0.445368 -15.5975 4.96332 -0.0622439 -4.07559 -1.66878 0.708054 2.72935 
56.5038 100.185 -336.019 -105.659 -82.8878 -104.403 -175.205 -2.73965 86.0485 -17.5998 0.918653 -0.369252 80.8848 13.0793 -0.765911 16.7095 -10.7147 8.44161 178.604 21.5604 92.9155 -35.1264 -13.985 -1.92018 67.2696 -5.11411 -0.898936 30.8686 -1.52982 2.57122 -0.0400913 7.70711 -90.4559 11.4577 -0.292705 -0.878334 -0.213484 -0.331069 -0.864607 -22.7463 -0.0152089 -0.925692 -2.73365 -0.0152026 -0.925691 90.5103 -30.1748 -105.682 46.8372 6.0226 -5.43335 -5.18352 -40.257 -5.38134 -18.1136 1.89267 -17.5893 -88.8023 -47.4886 80.0195 -25.387 -9.641 -14.7665 -11.1645 29.1462 -0.0300441 2.24331 -0.000258488 -13.7419 4.783 0.976593 -5.4289 -2.38531 1.95408 3.5617 
56.3085 99.6619 -332.473 -101.524 -81.5828 -100.546 -175.285 -6.40055 85.4227 -14.5469 -1.07931 -0.389251 81.887 14.127 -1.20062 18.4248 -10.2453 9.43201 178.38 22.4381 95.8815 -21.112 -12.4987 0.479448 67.4957 -5.09262 -1.16424 26.9636 -0.0214875 3.25501 -0.231443 7.78007 -90.3226 11.3112 -0.610881 -0.581845 -0.359649 -0.635892 -0.554399 -22.8944 -0.407768 -0.738528 -2.88179 -0.407763 -0.738532 90.542 -30.8536 -105.374 46.9989 6.54379 -3.36566 -5.00154 -37.3482 -5.2843 -16.7302 2.04869 -19.5527 -88.9087 -46.5191 79.6516 -25.4901 -9.59563 -18.3226 -11.0758 29.0388 -0.0300127 8.40071 -0.674997 -13.7356 5.12196 1.76567 -7.05259 -2.03964 3.052 3.62122 
56.1683 98.6369 -327.395 -100.308 -84.2235 -98.3651 -174.742 -10.0627 86.8757 -12.8948 1.38036 0.179887 84.1751 15.4302 -1.68173 19.5817 -10.5761 11.2301 178.775 23.2868 98.0732 -12.2386 -3.76999 2.18498 65.54 -3.87702 -1.28335 23.2778 1.59135 3.16886 -0.593954 7.69717 -90.484 11.4759 -1.40776 -0.818196 -0.194578 -1.4424 -0.75545 -22.7316 -1.09679 -1.20346 -2.71897 -1.0968 -1.20346 90.3356 -31.0124 -105.721 46.4638 7.81452 0.553545 -5.00174 -37.3524 -5.28445 -14.806 1.70671 -18.8954 -89.0346 -46.7783 79.5109 -26.9744 -9.93765 -22.7085 -10.6414 29.3574 -0.0301061 8.90835 -0.685993 -13.2026 4.7043 1.57746 -7.18857 -2.71707 2.84867 3.38175 
56.4514 97.4394 -319.333 -135.236 -83.5637 -132.527 -174.52 -22.1678 87.1113 -5.99621 1.44515 1.2544 83.2784 16.7619 -0.511734 24.0527 -8.18237 12.0114 177.935 22.8348 99.1338 -22.9629 -5.23649 2.34902 66.912 -2.56141 1.54931 22.7901 1.13747 5.34947 -0.65136 8.00759 -90.7268 10.8482 -1.63263 -1.29284 -0.822281 -1.68795 -1.21974 -23.3571 -1.16867 -1.72369 -3.3444 -1.16866 -1.7237 90.8202 -30.6864 -104.886 43.5327 9.41429 2.93944 -4.93313 -36.1942 -5.24987 -4.52508 0.395039 -17.4362 -88.8052 -47.1993 79.9547 -30.0832 -7.99177 -25.7164 -10.9439 28.6331 -0.029896 9.76948 -0.844458 -13.5849 5.09901 1.40035 -5.68415 -3.61573 2.3986 2.90944 
55.9976 97.5171 -310.667 -167.304 -84.957 -162.052 -169.578 -22.6524 94.0568 -13.3345 6.07907 0.820368 76.345 11.4282 -2.47074 37.9298 -0.714829 14.2506 178.477 21.6859 101.486 -28.8577 -4.89513 2.20993 63.8119 -0.819278 -1.72021 19.7115 1.78253 7.2685 -0.860272 7.83419 -91.1182 11.181 -2.23191 -2.0085 -0.489466 -2.31812 -1.90833 -23.0204 -1.52531 -2.5862 -3.00776 -1.52531 -2.58621 91.1746 -30.6805 -104.189 42.3931 10.7086 7.18681 -4.80812 -34.0085 -5.19038 -7.52732 1.1644 -24.2939 -88.794 -47.2012 79.9713 -31.4677 -5.92904 -24.0251 -11.3912 31.3713 -0.0307326 11.1203 -1.20823 -15.0863 4.0825 1.19359 -5.60208 -4.13535 2.12074 3.12882 
55.6126 97.9338 -302.602 -174.541 -83.2227 -169.202 -166.729 -12.3142 99.5421 -37.3406 19.8514 0.20253 63.0495 2.86588 0.615376 30.615 -2.63678 9.23446 177.439 16.364 101.784 -33.1313 -7.1313 2.68595 67.5996 -3.95496 -3.33779 19.8753 2.34507 5.37881 -0.63798 7.82847 -91.1527 11.1955 -1.80553 -2.11766 -0.475747 -1.89697 -2.03617 -23.0013 -1.08586 -2.56215 -2.98867 -1.08587 -2.56217 91.1251 -30.0271 -104.512 44.2456 9.81302 5.59826 -5.06907 -38.4444 -5.3158 -8.9203 0.849064 -16.4908 -88.7686 -48.4701 80.2698 -28.1114 -3.70003 -20.0911 -12.453 31.909 -0.0309108 10.6905 -1.38127 -16.5363 2.63608 0.842725 -3.6944 -3.93143 1.40788 2.10309 
55.4512 98.5913 -296.801 172.278 -82.2448 177.305 -170.528 4.64166 99.5007 -62.6405 20.463 2.7703 60.6562 0.774943 1.07013 11.1064 -10.9432 3.52006 176.983 10.5961 101.15 -32.0182 -6.64755 2.89157 70.3037 -5.89713 -3.7721 22.6913 1.28696 4.98774 -0.268583 8.00673 -91.1076 10.8445 -1.04634 -2.10533 -0.827633 -1.13796 -2.05727 -23.3499 -0.36542 -2.32236 -3.33727 -0.365414 -2.32235 90.8561 -29.4932 -105.242 45.7929 8.14976 0.960199 -5.08143 -38.6534 -5.32599 -15.7717 1.56652 -17.1416 -88.9085 -49.2767 80.2179 -25.2499 -4.83973 -17.7893 -12.0175 32.6914 -0.0311789 9.84138 -1.4923 -18.2207 2.89486 -0.447567 -2.4805 -2.5046 -0.0294964 1.70479 
